# xmcd CD database file
#
# Track frame offsets:
#	150
#	17547
#	31635
#	50447
#	67297
#	82530
#	99915
#	114877
#	130830
#	146757
#	157287
#	173697
#	192285
#	204420
#	218220
#	233405
#	248137
#	271747
#	296837
#
# Disc length: 4174 seconds
#
# Revision: 1
# Processed by: cddbd v1.5.1PL0 Copyright (c) Steve Scherf et al.
# Submitted via: CDex 1.51
#
DISCID=fe104c13
DTITLE=Paul Weller - 07) Modern Classics
DYEAR=1900
DGENRE=Rock
TTITLE0=Out Of Thinking
TTITLE1=Peacock Suit
TTITLE2=Sunflower
TTITLE3=The Weaver
TTITLE4=Wild Wood
TTITLE5=Above The Clouds
TTITLE6=Uh-Huh Oh-Yeh
TTITLE7=Brushed
TTITLE8=The Changingman
TTITLE9=Friday Street
TTITLE10=You Dou Something To Me
TTITLE11=Brand New Start
TTITLE12=Hung Up
TTITLE13=Mermaids
TTITLE14=Broken Stones
TTITLE15=Into Tomorrow
TTITLE16=(Can You Heal Us) Holy Man(live)
TTITLE17=Porcelain Gods(live)
TTITLE18=The River Bavnk
EXTD=
EXTT0=
EXTT1=
EXTT2=
EXTT3=
EXTT4=
EXTT5=
EXTT6=
EXTT7=
EXTT8=
EXTT9=
EXTT10=
EXTT11=
EXTT12=
EXTT13=
EXTT14=
EXTT15=
EXTT16=
EXTT17=
EXTT18=
PLAYORDER=
